<svg xmlns="http://www.w3.org/2000/svg" version="1.1" xmlns:xlink="http://www.w3.org/1999/xlink" xmlns:svgjs="http://svgjs.com/svgjs" width="1440" height="800" preserveAspectRatio="none" viewBox="0 0 1440 800"><g mask="url(&quot;#SvgjsMask1118&quot;)" fill="none"><rect width="1440" height="800" x="0" y="0" fill="rgba(255, 255, 255, 1)"></rect><path d="M-127.89 116.57 a139.28 139.28 0 1 0 278.56 0 a139.28 139.28 0 1 0 -278.56 0z" fill="rgba(99, 84, 138, 0.33)" class="triangle-float3"></path><path d="M-130.77 792.28 a164.68 164.68 0 1 0 329.36 0 a164.68 164.68 0 1 0 -329.36 0z" fill="rgba(99, 84, 138, 0.33)" class="triangle-float3"></path><path d="M1160.86 673.62 a242.98 242.98 0 1 0 485.96 0 a242.98 242.98 0 1 0 -485.96 0z" fill="rgba(99, 84, 138, 0.33)" class="triangle-float3"></path><path d="M1208.11 544.24 a209.06 209.06 0 1 0 418.12 0 a209.06 209.06 0 1 0 -418.12 0z" fill="rgba(99, 84, 138, 0.33)" class="triangle-float3"></path></g><defs><mask id="SvgjsMask1118"><rect width="1440" height="800" fill="#ffffff"></rect></mask><style>
            @keyframes float1 {
                0%{transform: translate(0, 0)}
                50%{transform: translate(-10px, 0)}
                100%{transform: translate(0, 0)}
            }

            .triangle-float1 {
                animation: float1 5s infinite;
            }

            @keyframes float2 {
                0%{transform: translate(0, 0)}
                50%{transform: translate(-5px, -5px)}
                100%{transform: translate(0, 0)}
            }

            .triangle-float2 {
                animation: float2 4s infinite;
            }

            @keyframes float3 {
                0%{transform: translate(0, 0)}
                50%{transform: translate(0, -10px)}
                100%{transform: translate(0, 0)}
            }

            .triangle-float3 {
                animation: float3 6s infinite;
            }
        </style></defs></svg>